HIERARCHY
ROOT Hips
{
 OFFSET 0.000000 0.000000 0.000000
 CHANNELS 6 Xposition Yposition Zposition Yrotation Xrotation Zrotation
 JOINT Chest
 {
  OFFSET 0.000000 10.383400 0.001500
  CHANNELS 3 Yrotation Xrotation Zrotation
  JOINT Chest2
  {
   OFFSET 0.000000 10.418200 -0.003100
   CHANNELS 3 Yrotation Xrotation Zrotation
   JOINT Chest3
   {
    OFFSET 0.000000 10.375100 0.000000
    CHANNELS 3 Yrotation Xrotation Zrotation
    JOINT Chest4
    {
     OFFSET 0.000000 10.364600 0.000000
     CHANNELS 3 Yrotation Xrotation Zrotation
     JOINT Neck
     {
      OFFSET 0.000000 15.642200 0.000000
      CHANNELS 3 Yrotation Xrotation Zrotation
      JOINT Head
      {
       OFFSET 0.000000 9.697300 -0.006500
       CHANNELS 3 Yrotation Xrotation Zrotation
       End Site
       {
        OFFSET 0.000000 18.492200 -0.003400
       }
      }
     }
     JOINT RightCollar
     {
      OFFSET -3.166800 10.349300 0.000000
      CHANNELS 3 Yrotation Xrotation Zrotation
      JOINT RightShoulder
      {
       OFFSET -14.729700 0.000000 0.000000
       CHANNELS 3 Yrotation Xrotation Zrotation
       JOINT RightElbow
       {
        OFFSET 0.000000 -32.224300 0.000000
        CHANNELS 3 Yrotation Xrotation Zrotation
        JOINT RightWrist
        {
         OFFSET 0.000000 -26.084100 0.000000
         CHANNELS 3 Yrotation Xrotation Zrotation
         End Site
         {
          OFFSET 0.000000 -19.319400 0.000000
         }
        }
       }
      }
     }
     JOINT LeftCollar
     {
      OFFSET 3.166800 10.349300 0.000000
      CHANNELS 3 Yrotation Xrotation Zrotation
      JOINT LeftShoulder
      {
       OFFSET 14.729700 0.000000 0.000000
       CHANNELS 3 Yrotation Xrotation Zrotation
       JOINT LeftElbow
       {
        OFFSET 0.000000 -32.224300 0.000000
        CHANNELS 3 Yrotation Xrotation Zrotation
        JOINT LeftWrist
        {
         OFFSET 0.000000 -26.084100 0.000000
         CHANNELS 3 Yrotation Xrotation Zrotation
         End Site
         {
          OFFSET 0.000000 -19.319400 0.000000
         }
        }
       }
      }
     }
    }
   }
  }
 }
 JOINT RightHip
 {
  OFFSET -8.428900 -0.007500 -0.000800
  CHANNELS 3 Yrotation Xrotation Zrotation
  JOINT RightKnee
  {
   OFFSET 0.000000 -43.834600 0.000700
   CHANNELS 3 Yrotation Xrotation Zrotation
   JOINT RightAnkle
   {
    OFFSET 0.000000 -42.757000 0.001200
    CHANNELS 3 Yrotation Xrotation Zrotation
    JOINT RightToe
    {
     OFFSET 0.000000 -6.946900 15.649300
     CHANNELS 3 Yrotation Xrotation Zrotation
     End Site
     {
      OFFSET 0.000000 -1.580800 6.825800
     }
    }
   }
  }
 }
 JOINT LeftHip
 {
  OFFSET 8.428900 -0.007500 -0.000800
  CHANNELS 3 Yrotation Xrotation Zrotation
  JOINT LeftKnee
  {
   OFFSET 0.000000 -43.834600 0.000700
   CHANNELS 3 Yrotation Xrotation Zrotation
   JOINT LeftAnkle
   {
    OFFSET 0.000000 -42.757000 0.001200
    CHANNELS 3 Yrotation Xrotation Zrotation
    JOINT LeftToe
    {
     OFFSET 0.000000 -6.946900 15.649300
     CHANNELS 3 Yrotation Xrotation Zrotation
     End Site
     {
      OFFSET 0.000000 -1.580800 6.825800
     }
    }
   }
  }
 }
}
MOTION
Frames: 11
Frame Time: 0.008333
0.000000 93.354300 0.000000 0.000000 -5.767883 0.000000 0.000000 11.653835 0.000000 0.000000 -5.885947 0.000000 0.000000 -0.000000 0.000000 0.000000 -0.000000 0.000000 0.000000 12.528835 0.000000 0.000000 0.711642 0.000000 0.000000 -0.000000 0.000000 0.000000 0.000000 -90.000000 0.000000 -2.309062 0.000000 0.000000 2.309062 0.000000 0.000000 -0.000000 0.000000 0.000000 -0.000000 90.000000 0.000000 -2.309062 0.000000 0.000000 2.309062 0.000000 0.000000 8.520418 0.000000 0.000000 1.905762 0.000000 -0.000000 -4.658285 0.000000 0.000000 -0.000000 0.000000 0.000000 8.520418 0.000000 0.000000 1.905762 0.000000 -0.000000 -4.658285 0.000000 0.000000 -0.000000 0.000000
127.079617 153.610503 17.532187 -9.953375 -27.778586 -1.188787 -2.376663 16.553557 1.098054 -0.247105 1.663970 0.203021 -0.402394 2.812006 0.348749 -1.872766 14.585800 1.647994 1.970125 13.085183 -1.259443 4.239984 -11.418983 -3.179495 -1.889774 -7.224731 -5.019192 9.911520 -15.800416 -7.265164 17.356527 -33.704644 5.163213 6.384429 -1.760239 -20.731261 -1.409794 -8.705625 -2.482544 -3.158943 -9.438851 5.325271 -17.001450 -41.151256 -4.164699 -18.172072 -2.811274 18.094585 -6.090258 -40.527683 -3.557614 -42.335094 79.658791 -42.592397 1.099825 -10.794352 4.269056 0.287646 -0.907870 0.161796 -3.935883 -34.448450 -9.055198 -8.276647 73.414743 -5.585886 -12.448104 -9.463335 -2.743163 0.046274 0.143116 0.042417
127.031478 145.163419 17.492702 -10.038236 -27.683050 -1.409317 -2.220996 16.486587 1.382697 -0.239975 1.686799 0.212959 -0.397293 2.816620 0.351766 -1.843084 14.582901 1.657339 1.966202 13.109334 -1.251531 4.228136 -11.374730 -3.161656 -1.765216 -7.206554 -5.050730 9.869280 -15.971216 -7.444197 15.657292 -33.107156 6.281359 6.303126 -2.495461 -20.758394 -1.734433 -8.670881 -2.513010 -2.931033 -9.794764 5.644768 -15.851961 -40.759236 -5.262644 -17.504569 -3.081740 18.075617 -6.195311 -40.579889 -3.244569 -42.396492 79.675007 -42.614083 1.215337 -11.164876 4.302338 0.145593 -0.561628 0.064459 -4.156901 -34.403368 -8.637579 -8.359107 73.248276 -5.675841 -12.388252 -9.421564 -2.755428 0.030590 0.111173 0.013595
126.990408 138.210927 17.464324 -10.143370 -27.637487 -1.561999 -2.070360 16.478569 1.605574 -0.241332 1.695540 0.229781 -0.384156 2.821050 0.354186 -1.825847 14.558161 1.645774 1.977906 13.166637 -1.229574 4.233775 -11.261298 -3.127669 -1.612529 -7.189597 -5.083939 9.755229 -16.189873 -7.595289 13.612461 -32.284327 7.621358 6.163825 -3.337036 -20.690082 -2.013044 -8.644789 -2.557856 -2.702525 -10.197289 6.009457 -14.616486 -40.267341 -6.418880 -16.567849 -3.537864 17.913966 -6.234715 -40.586168 -2.998349 -42.473697 79.688719 -42.670000 1.288424 -11.488800 4.341708 0.041334 -0.280272 0.018325 -4.348467 -34.326241 -8.268983 -8.432242 73.103400 -5.797286 -12.335266 -9.387539 -2.788023 0.016752 0.073101 0.007442
126.967234 133.195934 17.453614 -10.180445 -27.666786 -1.622602 -2.017219 16.521520 1.699637 -0.244394 1.683739 0.222790 -0.389930 2.807328 0.362369 -1.808076 14.575961 1.633368 2.003896 13.250193 -1.193505 4.249483 -11.069539 -3.078574 -1.430906 -7.175566 -5.134739 9.574111 -16.481423 -7.666808 11.220036 -31.196199 9.136709 5.925457 -4.221354 -20.452579 -2.230092 -8.629414 -2.604918 -2.485241 -10.672892 6.400040 -13.205209 -39.609131 -7.680150 -15.306012 -4.181062 17.558382 -6.227397 -40.521038 -2.900042 -42.482879 79.712272 -42.701590 1.273614 -11.692134 4.400480 -0.008806 -0.127946 -0.003890 -4.534466 -34.196755 -8.046374 -8.482291 72.968191 -5.928512 -12.320437 -9.357389 -2.758770 0.010037 0.038304 0.004458
126.946109 130.028975 17.440888 -10.202935 -27.676307 -1.672418 -2.009277 16.521965 1.770451 -0.228926 1.688923 0.214067 -0.386424 2.800020 0.361985 -1.792247 14.573089 1.641997 2.017503 13.372630 -1.169053 4.256233 -10.795110 -3.007442 -1.238282 -7.152479 -5.225706 9.417743 -16.840487 -7.679982 8.406385 -29.844286 10.783060 5.543949 -5.087410 -19.972187 -2.410403 -8.618420 -2.671145 -2.309047 -11.247341 6.808684 -11.441265 -38.719843 -9.106241 -13.810272 -4.886915 17.009491 -6.223651 -40.460989 -2.805233 -42.406900 79.700817 -42.642916 1.222748 -11.816656 4.424443 -0.014894 -0.042975 -0.006606 -4.727277 -34.123176 -7.828570 -8.527765 72.879134 -6.079501 -12.310429 -9.341838 -2.739106 0.004614 0.020749 0.002049
126.932474 128.290709 17.433988 -10.279078 -27.718584 -1.644172 -1.964256 16.530393 1.788618 -0.226478 1.686167 0.212547 -0.374712 2.815605 0.351374 -1.760530 14.500503 1.632368 2.013638 13.605278 -1.124988 4.236797 -10.431406 -2.907809 -1.048356 -7.062269 -5.313441 9.375395 -17.239403 -7.691803 5.128459 -28.282651 12.499018 4.989802 -5.867810 -19.147917 -2.584112 -8.555116 -2.728601 -2.213392 -11.932748 7.241183 -9.145432 -37.560286 -10.742716 -12.259334 -5.463991 16.253359 -6.121940 -40.365561 -2.770941 -42.239696 79.687433 -42.509638 1.133139 -11.898631 4.455276 -0.007046 0.000481 -0.003128 -4.813267 -34.023657 -7.698264 -8.572423 72.805127 -6.211822 -12.297424 -9.336383 -2.725612 0.001398 0.010241 0.000621
126.922580 127.467048 17.430354 -10.356670 -27.789765 -1.587258 -1.928995 16.553922 1.768914 -0.222674 1.683434 0.209838 -0.368732 2.811426 0.346654 -1.707314 14.473591 1.600352 2.004645 13.876367 -1.061358 4.191543 -9.958476 -2.781610 -0.846312 -6.994889 -5.387312 9.454233 -17.659636 -7.748543 1.402925 -26.576417 14.242867 4.240397 -6.510819 -17.907315 -2.749272 -8.538713 -2.779615 -2.232954 -12.715001 7.714894 -6.225496 -36.112558 -12.588545 -10.709065 -5.725955 15.208587 -5.967290 -40.239296 -2.791907 -42.048079 79.662703 -42.326048 1.053399 -11.959349 4.425517 0.007166 0.021112 0.003182 -4.847350 -33.912901 -7.672147 -8.660858 72.770936 -6.295850 -12.238781 -9.367529 -2.760368 0.007169 0.011771 0.003183
126.913960 127.131607 17.422246 -10.426217 -27.851256 -1.530069 -1.885968 16.509397 1.757988 -0.215070 1.734827 0.200531 -0.353843 2.746871 0.336809 -1.676099 14.507527 1.562643 1.998006 14.208234 -0.989982 4.137860 -9.345946 -2.630002 -0.617090 -6.945316 -5.465885 9.584286 -18.089435 -7.880020 -2.744822 -24.735949 16.037601 3.275362 -7.048456 -16.252706 -2.903748 -8.566587 -2.846042 -2.376882 -13.568568 8.244266 -2.697827 -34.349874 -14.598533 -9.036687 -5.517193 13.803489 -5.760926 -40.129596 -2.868721 -41.836438 79.654529 -42.080152 0.956722 -11.981028 4.455728 0.021188 0.032894 0.009410 -4.873390 -33.810772 -7.668142 -8.730015 72.732011 -6.337099 -12.174698 -9.391062 -2.799280 0.005851 0.015106 0.002598
126.909782 127.015815 17.411611 -10.499315 -27.914470 -1.451156 -1.838942 16.515911 1.713052 -0.210160 1.646984 0.194728 -0.339774 2.770643 0.323816 -1.635920 14.509672 1.525887 1.997587 14.624139 -0.903300 4.087883 -8.577832 -2.449308 -0.354608 -6.898879 -5.547970 9.666858 -18.527679 -8.104445 -7.283489 -22.697520 17.913804 2.066267 -7.487799 -14.194222 -3.053994 -8.609989 -2.917107 -2.620015 -14.477525 8.825808 1.322652 -32.212886 -16.720444 -7.053206 -4.777144 12.072528 -5.464523 -40.030283 -3.048520 -41.601598 79.668718 -41.751631 0.885821 -11.980030 4.484997 0.017659 0.028309 0.007842 -4.913129 -33.710884 -7.678394 -8.746466 72.688403 -6.350272 -12.101212 -9.407695 -2.835852 0.000849 0.017284 0.000377
126.909195 126.981185 17.397012 -10.580100 -27.972415 -1.357516 -1.783733 16.444852 1.647388 -0.202600 1.637407 0.187507 -0.332631 2.780122 0.314475 -1.591159 14.483976 1.484964 2.003830 15.114970 -0.802253 4.043860 -7.670937 -2.242398 -0.060828 -6.856978 -5.629566 9.636464 -18.994621 -8.423424 -12.167529 -20.393396 19.833658 0.592550 -7.632464 -11.804307 -3.206417 -8.665178 -2.978437 -2.900969 -15.435343 9.444896 5.652401 -29.623630 -18.912675 -4.561787 -3.608912 10.117477 -5.095605 -39.948456 -3.319362 -41.339880 79.707411 -41.341896 0.861144 -11.951029 4.489759 -0.008817 0.008339 -0.003915 -5.019106 -33.618320 -7.652117 -8.703851 72.628998 -6.378909 -12.026626 -9.410225 -2.867878 -0.002051 0.013430 -0.000911
